# xmcd
#
# Track frame offsets:
#	150
#	11974
#	31344
#	47518
#	65164
#	82922
#	101051
#	114011
#	127813
#	143843
#	154026
#	171770
#	182340
#	196398
#	212198
#	228165
#	240983
#	259675
#	288830
#	305901
#
# Disc length: 4314 seconds
#
# Revision: 0
# Processed by: cddbd v1.5.2PL0 Copyright (c) Steve Scherf et al.
# Submitted via: dBpowerAMP V4.0
#
DISCID=0810d814
DTITLE=Various Artist - Sélection Officielle des Fans  De Country 2007-CD1
DYEAR=2007
DGENRE=Country
TTITLE0=Billy Yates - Too Country And Proud Of It
TTITLE1=Hal Ketchum - Mama Knows The Higway
TTITLE2=Sugarland - Want To
TTITLE3=Tim McGraw - When The Stars Go Blue
TTITLE4=Rodney Atkins - Watching You
TTITLE5=Neal McCoy - Tail On The Tailgate
TTITLE6=Roy Rivers and Dolly Parton - Thank God I'm A Country Boy
TTITLE7=Dale Watson - It's Not Over Now
TTITLE8=Josh Turner - Your Man
TTITLE9=Arly Karlsen - A Hold By Day
TTITLE10=Danni Leigh - Day By Day
TTITLE11=Kevin Montgomery - Back In Baby's Arms
TTITLE12=Texas Renegade - Every Cloud Is A Silver Lining
TTITLE13=Pam Tillis - Band In The Windows
TTITLE14=Gary Allan - A Feelin' Like That
TTITLE15=Vince Gill - The Reason Why
TTITLE16=Joe Nichols - I'll Wait For You
TTITLE17=Chely Wright - The River
TTITLE18=Steve and Heather - I Say So Long (Bonus)
TTITLE19=Eddy Mitchell - Le Seul Survivant (Bonus)
EXTD=Universal  530 049-1\nlist by beb56gf@yahoo..fr
EXTT0=
EXTT1=
EXTT2=
EXTT3=
EXTT4=
EXTT5=
EXTT6=
EXTT7=
EXTT8=
EXTT9=
EXTT10=
EXTT11=
EXTT12=
EXTT13=
EXTT14=
EXTT15=
EXTT16=
EXTT17=
EXTT18=
EXTT19=
PLAYORDER=
